<svg width="477" height="230" viewBox="0 0 477 230" fill="white" xmlns="http://www.w3.org/2000/svg">
    <g fill='white'>
        <path d="M66.7746 77.996C63.2333 77.996 60.0793 77.083 57.3126 75.257V67.953C60.2453 70.1663 63.2056 71.273 66.1936 71.273C68.905 71.273 70.731 70.2217 71.6716 68.119C72.6676 65.961 73.1656 62.3643 73.1656 57.329V19.232H80.4696V58.408C80.4696 65.1587 79.3906 70.111 77.2326 73.265C75.13 76.419 71.644 77.996 66.7746 77.996ZM124.827 77.996C119.239 77.996 114.452 76.751 110.468 74.261C106.54 71.771 103.524 68.285 101.421 63.803C99.374 59.321 98.3503 54.092 98.3503 48.116C98.3503 42.14 99.374 36.911 101.421 32.429C103.524 27.947 106.54 24.461 110.468 21.971C114.452 19.481 119.239 18.236 124.827 18.236C130.416 18.236 135.175 19.481 139.103 21.971C143.087 24.461 146.103 27.947 148.15 32.429C150.253 36.911 151.304 42.14 151.304 48.116C151.304 54.092 150.253 59.321 148.15 63.803C146.103 68.285 143.087 71.771 139.103 74.261C135.175 76.751 130.416 77.996 124.827 77.996ZM124.827 71.356C131.025 71.356 135.673 69.281 138.771 65.131C141.87 60.9257 143.419 55.254 143.419 48.116C143.419 40.978 141.87 35.334 138.771 31.184C135.673 26.9787 131.025 24.876 124.827 24.876C118.63 24.876 113.982 26.9787 110.883 31.184C107.785 35.334 106.235 40.978 106.235 48.116C106.235 55.254 107.785 60.9257 110.883 65.131C113.982 69.281 118.63 71.356 124.827 71.356ZM215.699 19.232V77H208.395L177.353 32.429V77H170.049V19.232H177.353L208.395 63.803V19.232H215.699ZM268.826 28.86V44.215H290.323V53.345H268.826V77H257.87V19.232H295.801V28.86H268.826ZM333.948 77.996C328.028 77.996 322.937 76.7787 318.676 74.344C314.416 71.9093 311.179 68.451 308.965 63.969C306.752 59.487 305.645 54.2027 305.645 48.116C305.645 42.0293 306.752 36.745 308.965 32.263C311.179 27.781 314.416 24.3227 318.676 21.888C322.937 19.4533 328.028 18.236 333.948 18.236C339.869 18.236 344.96 19.4533 349.22 21.888C353.481 24.3227 356.718 27.781 358.931 32.263C361.145 36.745 362.251 42.0293 362.251 48.116C362.251 54.2027 361.145 59.487 358.931 63.969C356.718 68.451 353.481 71.9093 349.22 74.344C344.96 76.7787 339.869 77.996 333.948 77.996ZM333.948 67.87C339.15 67.87 343.244 66.1823 346.232 62.807C349.22 59.3763 350.714 54.4793 350.714 48.116C350.714 41.7527 349.22 36.8833 346.232 33.508C343.244 30.0773 339.15 28.362 333.948 28.362C328.747 28.362 324.652 30.0773 321.664 33.508C318.676 36.8833 317.182 41.7527 317.182 48.116C317.182 54.4793 318.676 59.3763 321.664 62.807C324.652 66.1823 328.747 67.87 333.948 67.87ZM408.964 77L394.273 55.835L379.831 77H368.045L388.546 47.535L369.041 19.232H381.076L394.771 38.986L408.217 19.232H420.003L400.498 47.286L420.999 77H408.964ZM96.5527 130.9L88.3527 157H82.6527L76.5027 136.95L70.4527 157H64.7527L56.5527 130.9H61.0527L67.8527 152.75L74.3527 130.9H78.8527L85.4527 152.75L92.2527 130.9H96.5527ZM124.67 145.4H106.17C106.437 147.967 107.287 150.017 108.72 151.55C110.187 153.05 112.17 153.8 114.67 153.8C116.17 153.8 117.62 153.5 119.02 152.9C120.454 152.267 121.904 151.35 123.37 150.15H123.57V154.55C122.104 155.617 120.654 156.4 119.22 156.9C117.787 157.367 116.254 157.6 114.62 157.6C111.954 157.6 109.637 157.017 107.67 155.85C105.704 154.683 104.187 153.067 103.12 151C102.087 148.9 101.57 146.5 101.57 143.8C101.57 141.233 102.037 138.933 102.97 136.9C103.937 134.833 105.304 133.217 107.07 132.05C108.837 130.883 110.904 130.3 113.27 130.3C115.67 130.3 117.72 130.9 119.42 132.1C121.154 133.267 122.454 134.883 123.32 136.95C124.22 139.017 124.67 141.35 124.67 143.95V145.4ZM113.32 133.95C111.254 133.95 109.604 134.7 108.37 136.2C107.137 137.7 106.404 139.633 106.17 142H120.12C119.887 139.567 119.204 137.617 118.07 136.15C116.97 134.683 115.387 133.95 113.32 133.95ZM145.601 130.3C147.867 130.3 149.801 130.9 151.401 132.1C153.001 133.3 154.201 134.933 155.001 137C155.834 139.067 156.251 141.4 156.251 144C156.251 146.6 155.767 148.933 154.801 151C153.867 153.033 152.501 154.633 150.701 155.8C148.934 156.967 146.834 157.55 144.401 157.55C143.167 157.55 142.017 157.417 140.951 157.15C139.884 156.883 138.751 156.5 137.551 156V157H133.151V119.3H137.551V133.7C139.717 131.433 142.401 130.3 145.601 130.3ZM143.951 153.65C146.351 153.65 148.201 152.75 149.501 150.95C150.834 149.15 151.501 146.833 151.501 144C151.501 141.167 150.984 138.85 149.951 137.05C148.951 135.25 147.367 134.35 145.201 134.35C143.667 134.35 142.284 134.667 141.051 135.3C139.851 135.933 138.684 136.867 137.551 138.1V152.65C139.717 153.317 141.851 153.65 143.951 153.65ZM197.497 157L196.847 153.55C195.647 154.883 194.297 155.883 192.797 156.55C191.297 157.217 189.614 157.55 187.747 157.55C184.514 157.55 182.03 156.3 180.297 153.8C178.564 151.3 177.697 148.1 177.697 144.2C177.697 141.533 178.164 139.15 179.097 137.05C180.064 134.95 181.43 133.3 183.197 132.1C184.997 130.9 187.13 130.3 189.597 130.3C190.797 130.3 191.93 130.45 192.997 130.75C194.064 131.017 195.197 131.417 196.397 131.95V119.3H200.797V151.2L201.897 157H197.497ZM188.447 153.5C190.047 153.5 191.464 153.183 192.697 152.55C193.964 151.883 195.197 150.917 196.397 149.65V135.3C194.264 134.567 192.147 134.2 190.047 134.2C187.614 134.2 185.73 135.133 184.397 137C183.097 138.833 182.447 141.2 182.447 144.1C182.447 146.867 182.914 149.133 183.847 150.9C184.814 152.633 186.347 153.5 188.447 153.5ZM232.629 145.4H214.129C214.396 147.967 215.246 150.017 216.679 151.55C218.146 153.05 220.129 153.8 222.629 153.8C224.129 153.8 225.579 153.5 226.979 152.9C228.413 152.267 229.863 151.35 231.329 150.15H231.529V154.55C230.063 155.617 228.613 156.4 227.179 156.9C225.746 157.367 224.213 157.6 222.579 157.6C219.913 157.6 217.596 157.017 215.629 155.85C213.663 154.683 212.146 153.067 211.079 151C210.046 148.9 209.529 146.5 209.529 143.8C209.529 141.233 209.996 138.933 210.929 136.9C211.896 134.833 213.263 133.217 215.029 132.05C216.796 130.883 218.863 130.3 221.229 130.3C223.629 130.3 225.679 130.9 227.379 132.1C229.113 133.267 230.413 134.883 231.279 136.95C232.179 139.017 232.629 141.35 232.629 143.95V145.4ZM221.279 133.95C219.213 133.95 217.563 134.7 216.329 136.2C215.096 137.7 214.363 139.633 214.129 142H228.079C227.846 139.567 227.163 137.617 226.029 136.15C224.929 134.683 223.346 133.95 221.279 133.95ZM262.66 130.9L253.01 157H247.01L237.36 130.9H241.86L250.11 153.45L258.36 130.9H262.66ZM289.612 145.4H271.112C271.378 147.967 272.228 150.017 273.662 151.55C275.128 153.05 277.112 153.8 279.612 153.8C281.112 153.8 282.562 153.5 283.962 152.9C285.395 152.267 286.845 151.35 288.312 150.15H288.512V154.55C287.045 155.617 285.595 156.4 284.162 156.9C282.728 157.367 281.195 157.6 279.562 157.6C276.895 157.6 274.578 157.017 272.612 155.85C270.645 154.683 269.128 153.067 268.062 151C267.028 148.9 266.512 146.5 266.512 143.8C266.512 141.233 266.978 138.933 267.912 136.9C268.878 134.833 270.245 133.217 272.012 132.05C273.778 130.883 275.845 130.3 278.212 130.3C280.612 130.3 282.662 130.9 284.362 132.1C286.095 133.267 287.395 134.883 288.262 136.95C289.162 139.017 289.612 141.35 289.612 143.95V145.4ZM278.262 133.95C276.195 133.95 274.545 134.7 273.312 136.2C272.078 137.7 271.345 139.633 271.112 142H285.062C284.828 139.567 284.145 137.617 283.012 136.15C281.912 134.683 280.328 133.95 278.262 133.95ZM297.792 119.3H302.192V157H297.792V119.3ZM323.006 157.6C319.206 157.6 316.239 156.367 314.106 153.9C311.973 151.4 310.906 148.083 310.906 143.95C310.906 139.817 311.973 136.517 314.106 134.05C316.239 131.55 319.206 130.3 323.006 130.3C326.806 130.3 329.773 131.55 331.906 134.05C334.039 136.517 335.106 139.817 335.106 143.95C335.106 148.083 334.039 151.4 331.906 153.9C329.773 156.367 326.806 157.6 323.006 157.6ZM323.006 153.8C325.439 153.8 327.273 152.9 328.506 151.1C329.739 149.3 330.356 146.917 330.356 143.95C330.356 140.983 329.739 138.6 328.506 136.8C327.273 135 325.439 134.1 323.006 134.1C320.573 134.1 318.739 135 317.506 136.8C316.306 138.6 315.706 140.983 315.706 143.95C315.706 146.917 316.306 149.3 317.506 151.1C318.739 152.9 320.573 153.8 323.006 153.8ZM356.488 130.3C358.755 130.3 360.688 130.9 362.288 132.1C363.888 133.3 365.088 134.933 365.888 137C366.722 139.067 367.138 141.4 367.138 144C367.138 146.6 366.655 148.933 365.688 151C364.755 153.033 363.388 154.633 361.588 155.8C359.822 156.967 357.722 157.55 355.288 157.55C354.055 157.55 352.905 157.417 351.838 157.15C350.772 156.883 349.638 156.5 348.438 156V168.6H344.038V136.7L342.938 130.9H347.338L347.988 134.25C350.255 131.617 353.088 130.3 356.488 130.3ZM354.838 153.65C357.238 153.65 359.088 152.75 360.388 150.95C361.722 149.15 362.388 146.833 362.388 144C362.388 141.167 361.872 138.85 360.838 137.05C359.838 135.25 358.255 134.35 356.088 134.35C354.555 134.35 353.172 134.667 351.938 135.3C350.738 135.933 349.572 136.867 348.438 138.1V152.65C350.605 153.317 352.738 153.65 354.838 153.65ZM397.571 145.4H379.071C379.337 147.967 380.187 150.017 381.621 151.55C383.087 153.05 385.071 153.8 387.571 153.8C389.071 153.8 390.521 153.5 391.921 152.9C393.354 152.267 394.804 151.35 396.271 150.15H396.471V154.55C395.004 155.617 393.554 156.4 392.121 156.9C390.687 157.367 389.154 157.6 387.521 157.6C384.854 157.6 382.537 157.017 380.571 155.85C378.604 154.683 377.087 153.067 376.021 151C374.987 148.9 374.471 146.5 374.471 143.8C374.471 141.233 374.937 138.933 375.871 136.9C376.837 134.833 378.204 133.217 379.971 132.05C381.737 130.883 383.804 130.3 386.171 130.3C388.571 130.3 390.621 130.9 392.321 132.1C394.054 133.267 395.354 134.883 396.221 136.95C397.121 139.017 397.571 141.35 397.571 143.95V145.4ZM386.221 133.95C384.154 133.95 382.504 134.7 381.271 136.2C380.037 137.7 379.304 139.633 379.071 142H393.021C392.787 139.567 392.104 137.617 390.971 136.15C389.871 134.683 388.287 133.95 386.221 133.95ZM419.051 130.3V135.15H418.301C416.735 135.15 415.318 135.433 414.051 136C412.818 136.567 411.785 137.383 410.951 138.45V157H406.551V136.7L405.451 130.9H409.851L410.751 135.55C412.118 133.55 413.268 132.183 414.201 131.45C415.168 130.683 416.268 130.3 417.501 130.3H419.051Z" fill="white"/>
        <path d="M57.3126 75.257H56.3126V75.7952L56.7618 76.0916L57.3126 75.257ZM57.3126 67.953L57.915 67.1548L56.3126 65.9454V67.953H57.3126ZM71.6716 68.119L70.7636 67.6999L70.7588 67.7106L71.6716 68.119ZM73.1656 19.232V18.232H72.1656V19.232H73.1656ZM80.4696 19.232H81.4696V18.232H80.4696V19.232ZM77.2326 73.265L76.4073 72.7003L76.4006 72.7103L77.2326 73.265ZM66.7746 76.996C63.4151 76.996 60.4553 76.133 57.8635 74.4224L56.7618 76.0916C59.7032 78.033 63.0515 78.996 66.7746 78.996V76.996ZM58.3126 75.257V67.953H56.3126V75.257H58.3126ZM56.7102 68.7512C59.7757 71.0648 62.9422 72.273 66.1936 72.273V70.273C63.469 70.273 60.7149 69.2679 57.915 67.1548L56.7102 68.7512ZM66.1936 72.273C67.6753 72.273 68.9933 71.9858 70.0956 71.3511C71.2086 70.7103 72.0364 69.7524 72.5844 68.5274L70.7588 67.7106C70.3662 68.5883 69.8106 69.2074 69.0977 69.6179C68.374 70.0345 67.4233 70.273 66.1936 70.273V72.273ZM72.5796 68.5381C73.6731 66.1688 74.1656 62.3826 74.1656 57.329H72.1656C72.1656 62.346 71.6621 65.7532 70.7637 67.6999L72.5796 68.5381ZM74.1656 57.329V19.232H72.1656V57.329H74.1656ZM73.1656 20.232H80.4696V18.232H73.1656V20.232ZM79.4696 19.232V58.408H81.4696V19.232H79.4696ZM79.4696 58.408C79.4696 65.0928 78.3935 69.7974 76.4073 72.7003L78.0579 73.8297C80.3877 70.4246 81.4696 65.2245 81.4696 58.408H79.4696ZM76.4006 72.7103C74.5357 75.5076 71.4164 76.996 66.7746 76.996V78.996C71.8715 78.996 75.7242 77.3304 78.0647 73.8197L76.4006 72.7103ZM110.468 74.261L109.933 75.1057L109.938 75.109L110.468 74.261ZM101.421 63.803L100.512 64.2185L100.516 64.2277L101.421 63.803ZM101.421 32.429L100.516 32.0043L100.512 32.0135L101.421 32.429ZM110.468 21.971L109.938 21.123L109.933 21.1264L110.468 21.971ZM139.103 21.971L138.568 22.8157L138.573 22.819L139.103 21.971ZM148.15 32.429L147.241 32.8445L147.245 32.8537L148.15 32.429ZM148.15 63.803L147.245 63.3783L147.241 63.3875L148.15 63.803ZM139.103 74.261L138.573 73.413L138.568 73.4164L139.103 74.261ZM138.771 65.131L139.573 65.7293L139.576 65.7242L138.771 65.131ZM138.771 31.184L137.966 31.7772L137.97 31.7823L138.771 31.184ZM110.883 31.184L111.685 31.7823L111.688 31.7772L110.883 31.184ZM110.883 65.131L110.078 65.7242L110.082 65.7293L110.883 65.131ZM124.827 76.996C119.39 76.996 114.795 75.7862 110.998 73.413L109.938 75.109C114.109 77.7158 119.087 78.996 124.827 78.996V76.996ZM111.004 73.4164C107.246 71.0349 104.354 67.6995 102.327 63.3783L100.516 64.2277C102.694 68.8704 105.833 72.5071 109.933 75.1056L111.004 73.4164ZM102.331 63.3875C100.354 59.0606 99.3503 53.9785 99.3503 48.116H97.3503C97.3503 54.2055 98.3935 59.5814 100.512 64.2185L102.331 63.3875ZM99.3503 48.116C99.3503 42.2535 100.354 37.1714 102.331 32.8445L100.512 32.0135C98.3935 36.6506 97.3503 42.0265 97.3503 48.116H99.3503ZM102.327 32.8537C104.354 28.5324 107.246 25.1971 111.004 22.8156L109.933 21.1264C105.833 23.7249 102.694 27.3615 100.516 32.0043L102.327 32.8537ZM110.998 22.819C114.795 20.4458 119.39 19.236 124.827 19.236V17.236C119.087 17.236 114.109 18.5162 109.938 21.123L110.998 22.819ZM124.827 19.236C130.265 19.236 134.829 20.446 138.568 22.8156L139.639 21.1264C135.52 18.516 130.567 17.236 124.827 17.236V19.236ZM138.573 22.819C142.383 25.1999 145.271 28.5316 147.241 32.8445L149.06 32.0135C146.935 27.3624 143.792 23.7221 139.633 21.123L138.573 22.819ZM147.245 32.8537C149.274 37.1782 150.304 42.2569 150.304 48.116H152.304C152.304 42.0231 151.232 36.6438 149.056 32.0043L147.245 32.8537ZM150.304 48.116C150.304 53.9751 149.274 59.0538 147.245 63.3783L149.056 64.2277C151.232 59.5882 152.304 54.2089 152.304 48.116H150.304ZM147.241 63.3875C145.271 67.7004 142.383 71.0321 138.573 73.413L139.633 75.109C143.792 72.5099 146.935 68.8696 149.06 64.2185L147.241 63.3875ZM138.568 73.4164C134.829 75.786 130.265 76.996 124.827 76.996V78.996C130.567 78.996 135.52 77.716 139.639 75.1056L138.568 73.4164ZM124.827 72.356C131.27 72.356 136.247 70.1833 139.573 65.7293L137.97 64.5327C135.098 68.3787 130.779 70.356 124.827 70.356V72.356ZM139.576 65.7242C142.841 61.294 144.419 55.3906 144.419 48.116H142.419C142.419 55.1174 140.899 60.5573 137.966 64.5378L139.576 65.7242ZM144.419 48.116C144.419 40.8424 142.841 34.9632 139.573 30.5857L137.97 31.7823C140.899 35.7048 142.419 41.1136 142.419 48.116H144.419ZM139.576 30.5908C136.253 26.0801 131.275 23.876 124.827 23.876V25.876C130.774 25.876 135.093 27.8772 137.966 31.7772L139.576 30.5908ZM124.827 23.876C118.379 23.876 113.402 26.0801 110.078 30.5908L111.688 31.7772C114.562 27.8772 118.881 25.876 124.827 25.876V23.876ZM110.082 30.5857C106.814 34.9632 105.235 40.8424 105.235 48.116H107.235C107.235 41.1136 108.756 35.7048 111.685 31.7823L110.082 30.5857ZM105.235 48.116C105.235 55.3906 106.814 61.294 110.078 65.7242L111.688 64.5378C108.755 60.5573 107.235 55.1174 107.235 48.116H105.235ZM110.082 65.7293C113.408 70.1833 118.384 72.356 124.827 72.356V70.356C118.876 70.356 114.556 68.3787 111.685 64.5327L110.082 65.7293ZM215.699 19.232H216.699V18.232H215.699V19.232ZM215.699 77V78H216.699V77H215.699ZM208.395 77L207.575 77.5715L207.873 78H208.395V77ZM177.353 32.429L178.174 31.8575L176.353 29.2434V32.429H177.353ZM177.353 77V78H178.353V77H177.353ZM170.049 77H169.049V78H170.049V77ZM170.049 19.232V18.232H169.049V19.232H170.049ZM177.353 19.232L178.174 18.6605L177.875 18.232H177.353V19.232ZM208.395 63.803L207.575 64.3745L209.395 66.9886V63.803H208.395ZM208.395 19.232V18.232H207.395V19.232H208.395ZM214.699 19.232V77H216.699V19.232H214.699ZM215.699 76H208.395V78H215.699V76ZM209.216 76.4285L178.174 31.8575L176.533 33.0005L207.575 77.5715L209.216 76.4285ZM176.353 32.429V77H178.353V32.429H176.353ZM177.353 76H170.049V78H177.353V76ZM171.049 77V19.232H169.049V77H171.049ZM170.049 20.232H177.353V18.232H170.049V20.232ZM176.533 19.8035L207.575 64.3745L209.216 63.2315L178.174 18.6605L176.533 19.8035ZM209.395 63.803V19.232H207.395V63.803H209.395ZM208.395 20.232H215.699V18.232H208.395V20.232ZM268.826 28.86V27.86H267.826V28.86H268.826ZM268.826 44.215H267.826V45.215H268.826V44.215ZM290.323 44.215H291.323V43.215H290.323V44.215ZM290.323 53.345V54.345H291.323V53.345H290.323ZM268.826 53.345V52.345H267.826V53.345H268.826ZM268.826 77V78H269.826V77H268.826ZM257.87 77H256.87V78H257.87V77ZM257.87 19.232V18.232H256.87V19.232H257.87ZM295.801 19.232H296.801V18.232H295.801V19.232ZM295.801 28.86V29.86H296.801V28.86H295.801ZM267.826 28.86V44.215H269.826V28.86H267.826ZM268.826 45.215H290.323V43.215H268.826V45.215ZM289.323 44.215V53.345H291.323V44.215H289.323ZM290.323 52.345H268.826V54.345H290.323V52.345ZM267.826 53.345V77H269.826V53.345H267.826ZM268.826 76H257.87V78H268.826V76ZM258.87 77V19.232H256.87V77H258.87ZM257.87 20.232H295.801V18.232H257.87V20.232ZM294.801 19.232V28.86H296.801V19.232H294.801ZM295.801 27.86H268.826V29.86H295.801V27.86ZM318.676 74.344L318.18 75.2122L318.676 74.344ZM308.965 63.969L308.069 64.4118L308.069 64.4118L308.965 63.969ZM308.965 32.263L308.069 31.8202L308.069 31.8202L308.965 32.263ZM318.676 21.888L318.18 21.0198L318.18 21.0198L318.676 21.888ZM349.22 21.888L349.717 21.0198L349.717 21.0198L349.22 21.888ZM358.931 32.263L358.035 32.7058L358.035 32.7058L358.931 32.263ZM358.931 63.969L358.035 63.5262L358.035 63.5262L358.931 63.969ZM349.22 74.344L349.717 75.2122L349.717 75.2122L349.22 74.344ZM346.232 62.807L346.981 63.4699L346.986 63.4638L346.232 62.807ZM346.232 33.508L345.478 34.1648L345.484 34.1708L346.232 33.508ZM321.664 33.508L322.413 34.1709L322.418 34.1648L321.664 33.508ZM321.664 62.807L320.91 63.4638L320.916 63.4698L321.664 62.807ZM333.948 76.996C328.166 76.996 323.254 75.8079 319.173 73.4758L318.18 75.2122C322.62 77.7495 327.89 78.996 333.948 78.996V76.996ZM319.173 73.4758C315.088 71.1418 311.989 67.8332 309.862 63.5262L308.069 64.4118C310.368 69.0688 313.743 72.6768 318.18 75.2122L319.173 73.4758ZM309.862 63.5262C307.73 59.2087 306.645 54.082 306.645 48.116H304.645C304.645 54.3233 305.774 59.7653 308.069 64.4118L309.862 63.5262ZM306.645 48.116C306.645 42.15 307.73 37.0233 309.862 32.7058L308.069 31.8202C305.774 36.4667 304.645 41.9087 304.645 48.116H306.645ZM309.862 32.7058C311.989 28.3988 315.088 25.0902 319.173 22.7562L318.18 21.0198C313.743 23.5552 310.368 27.1632 308.069 31.8202L309.862 32.7058ZM319.173 22.7562C323.254 20.4241 328.166 19.236 333.948 19.236V17.236C327.89 17.236 322.62 18.4825 318.18 21.0198L319.173 22.7562ZM333.948 19.236C339.731 19.236 344.643 20.4241 348.724 22.7562L349.717 21.0198C345.276 18.4825 340.007 17.236 333.948 17.236V19.236ZM348.724 22.7562C352.809 25.0902 355.908 28.3988 358.035 32.7058L359.828 31.8202C357.528 27.1632 354.153 23.5552 349.717 21.0198L348.724 22.7562ZM358.035 32.7058C360.167 37.0233 361.251 42.15 361.251 48.116H363.251C363.251 41.9087 362.123 36.4667 359.828 31.8202L358.035 32.7058ZM361.251 48.116C361.251 54.082 360.167 59.2087 358.035 63.5262L359.828 64.4118C362.123 59.7653 363.251 54.3233 363.251 48.116H361.251ZM358.035 63.5262C355.908 67.8332 352.809 71.1418 348.724 73.4758L349.717 75.2122C354.153 72.6768 357.528 69.0688 359.828 64.4118L358.035 63.5262ZM348.724 73.4758C344.643 75.8079 339.731 76.996 333.948 76.996V78.996C340.007 78.996 345.276 77.7495 349.717 75.2122L348.724 73.4758ZM333.948 68.87C339.387 68.87 343.773 67.0935 346.981 63.4698L345.484 62.1442C342.715 65.2711 338.912 66.87 333.948 66.87V68.87ZM346.986 63.4638C350.186 59.7899 351.714 54.625 351.714 48.116H349.714C349.714 54.3337 348.254 58.9628 345.478 62.1502L346.986 63.4638ZM351.714 48.116C351.714 41.6084 350.187 36.4664 346.981 32.8452L345.484 34.1708C348.254 37.3003 349.714 41.897 349.714 48.116H351.714ZM346.986 32.8512C343.78 29.17 339.393 27.362 333.948 27.362V29.362C338.907 29.362 342.708 30.9846 345.478 34.1648L346.986 32.8512ZM333.948 27.362C328.504 27.362 324.116 29.17 320.91 32.8512L322.418 34.1648C325.188 30.9846 328.99 29.362 333.948 29.362V27.362ZM320.916 32.8452C317.71 36.4664 316.182 41.6084 316.182 48.116H318.182C318.182 41.897 319.643 37.3003 322.413 34.1708L320.916 32.8452ZM316.182 48.116C316.182 54.625 317.71 59.7899 320.91 63.4638L322.418 62.1502C319.642 58.9628 318.182 54.3337 318.182 48.116H316.182ZM320.916 63.4698C324.123 67.0935 328.509 68.87 333.948 68.87V66.87C328.985 66.87 325.181 65.2711 322.413 62.1442L320.916 63.4698ZM408.964 77L408.143 77.5702L408.441 78H408.964V77ZM394.273 55.835L395.095 55.2648L394.266 54.0711L393.447 55.2714L394.273 55.835ZM379.831 77V78H380.359L380.657 77.5636L379.831 77ZM368.045 77L367.224 76.4289L366.131 78H368.045V77ZM388.546 47.535L389.367 48.1061L389.763 47.5377L389.37 46.9675L388.546 47.535ZM369.041 19.232V18.232H367.138L368.218 19.7994L369.041 19.232ZM381.076 19.232L381.898 18.6622L381.6 18.232H381.076V19.232ZM394.771 38.986L393.949 39.5557L394.779 40.7521L395.598 39.5487L394.771 38.986ZM408.217 19.232V18.232H407.688L407.391 18.6693L408.217 19.232ZM420.003 19.232L420.824 19.8028L421.916 18.232H420.003V19.232ZM400.498 47.286L399.677 46.7151L399.282 47.2838L399.675 47.8539L400.498 47.286ZM420.999 77V78H422.904L421.822 76.4321L420.999 77ZM409.786 76.4298L395.095 55.2648L393.452 56.4052L408.143 77.5702L409.786 76.4298ZM393.447 55.2714L379.005 76.4364L380.657 77.5636L395.099 56.3986L393.447 55.2714ZM379.831 76H368.045V78H379.831V76ZM368.866 77.5711L389.367 48.1061L387.725 46.9639L367.224 76.4289L368.866 77.5711ZM389.37 46.9675L369.865 18.6645L368.218 19.7994L387.723 48.1024L389.37 46.9675ZM369.041 20.232H381.076V18.232H369.041V20.232ZM380.254 19.8017L393.949 39.5557L395.593 38.4162L381.898 18.6622L380.254 19.8017ZM395.598 39.5487L409.044 19.7947L407.391 18.6693L393.945 38.4233L395.598 39.5487ZM408.217 20.232H420.003V18.232H408.217V20.232ZM419.182 18.6611L399.677 46.7151L401.319 47.8569L420.824 19.8028L419.182 18.6611ZM399.675 47.8539L420.176 77.5679L421.822 76.4321L401.321 46.7181L399.675 47.8539ZM420.999 76H408.964V78H420.999V76ZM96.5527 130.9L97.5068 131.2L97.9151 129.9H96.5527V130.9ZM88.3527 157V158H89.0868L89.3068 157.3L88.3527 157ZM82.6527 157L81.6967 157.293L81.9135 158H82.6527V157ZM76.5027 136.95L77.4588 136.657L76.4949 133.514L75.5454 136.661L76.5027 136.95ZM70.4527 157V158H71.1955L71.4101 157.289L70.4527 157ZM64.7527 157L63.7987 157.3L64.0187 158H64.7527V157ZM56.5527 130.9V129.9H55.1904L55.5987 131.2L56.5527 130.9ZM61.0527 130.9L62.0076 130.603L61.7888 129.9H61.0527V130.9ZM67.8527 152.75L66.8979 153.047L67.8743 156.185L68.8112 153.035L67.8527 152.75ZM74.3527 130.9V129.9H73.6069L73.3942 130.615L74.3527 130.9ZM78.8527 130.9L79.81 130.611L79.5953 129.9H78.8527V130.9ZM85.4527 152.75L84.4955 153.039L85.4385 156.161L86.4076 153.047L85.4527 152.75ZM92.2527 130.9V129.9H91.5166L91.2979 130.603L92.2527 130.9ZM95.5987 130.6L87.3987 156.7L89.3068 157.3L97.5068 131.2L95.5987 130.6ZM88.3527 156H82.6527V158H88.3527V156ZM83.6088 156.707L77.4588 136.657L75.5467 137.243L81.6967 157.293L83.6088 156.707ZM75.5454 136.661L69.4954 156.711L71.4101 157.289L77.4601 137.239L75.5454 136.661ZM70.4527 156H64.7527V158H70.4527V156ZM65.7068 156.7L57.5068 130.6L55.5987 131.2L63.7987 157.3L65.7068 156.7ZM56.5527 131.9H61.0527V129.9H56.5527V131.9ZM60.0979 131.197L66.8979 153.047L68.8076 152.453L62.0076 130.603L60.0979 131.197ZM68.8112 153.035L75.3112 131.185L73.3942 130.615L66.8942 152.465L68.8112 153.035ZM74.3527 131.9H78.8527V129.9H74.3527V131.9ZM77.8955 131.189L84.4955 153.039L86.41 152.461L79.81 130.611L77.8955 131.189ZM86.4076 153.047L93.2076 131.197L91.2979 130.603L84.4979 152.453L86.4076 153.047ZM92.2527 131.9H96.5527V129.9H92.2527V131.9ZM124.67 145.4V146.4H125.67V145.4H124.67ZM106.17 145.4V144.4H105.061L105.176 145.503L106.17 145.4ZM108.72 151.55L107.99 152.233L107.997 152.241L108.005 152.249L108.72 151.55ZM119.02 152.9L119.414 153.819L119.424 153.815L119.02 152.9ZM123.37 150.15V149.15H123.013L122.737 149.376L123.37 150.15ZM123.57 150.15H124.57V149.15H123.57V150.15ZM123.57 154.55L124.158 155.359L124.57 155.059V154.55H123.57ZM119.22 156.9L119.53 157.851L119.54 157.848L119.55 157.844L119.22 156.9ZM107.67 155.85L107.16 156.71L107.16 156.71L107.67 155.85ZM103.12 151L102.223 151.442L102.227 151.45L102.232 151.459L103.12 151ZM102.97 136.9L102.064 136.476L102.061 136.483L102.97 136.9ZM107.07 132.05L107.621 132.884L107.621 132.884L107.07 132.05ZM119.42 132.1L118.844 132.917L118.853 132.923L118.862 132.93L119.42 132.1ZM123.32 136.95L122.398 137.337L122.403 137.349L123.32 136.95ZM108.37 136.2L109.143 136.835L109.143 136.835L108.37 136.2ZM106.17 142L105.175 141.902L105.067 143H106.17V142ZM120.12 142V143H121.221L121.116 141.905L120.12 142ZM118.07 136.15L117.27 136.75L117.275 136.756L117.279 136.761L118.07 136.15ZM124.67 144.4H106.17V146.4H124.67V144.4ZM105.176 145.503C105.46 148.236 106.376 150.507 107.99 152.233L109.451 150.867C108.198 149.527 107.414 147.697 107.165 145.297L105.176 145.503ZM108.005 152.249C109.696 153.978 111.957 154.8 114.67 154.8V152.8C112.384 152.8 110.678 152.122 109.435 150.851L108.005 152.249ZM114.67 154.8C116.308 154.8 117.892 154.472 119.414 153.819L118.626 151.981C117.349 152.528 116.033 152.8 114.67 152.8V154.8ZM119.424 153.815C120.955 153.138 122.481 152.169 124.004 150.924L122.737 149.376C121.326 150.531 119.952 151.395 118.616 151.985L119.424 153.815ZM123.37 151.15H123.57V149.15H123.37V151.15ZM122.57 150.15V154.55H124.57V150.15H122.57ZM122.982 153.741C121.58 154.761 120.216 155.494 118.891 155.956L119.55 157.844C121.091 157.306 122.628 156.472 124.158 155.359L122.982 153.741ZM118.911 155.949C117.585 156.381 116.157 156.6 114.62 156.6V158.6C116.35 158.6 117.989 158.353 119.53 157.851L118.911 155.949ZM114.62 156.6C112.103 156.6 109.969 156.051 108.181 154.99L107.16 156.71C109.305 157.983 111.804 158.6 114.62 158.6V156.6ZM108.181 154.99C106.378 153.921 104.991 152.444 104.009 150.541L102.232 151.459C103.383 153.689 105.029 155.446 107.16 156.71L108.181 154.99ZM104.018 150.558C103.062 148.616 102.57 146.37 102.57 143.8H100.57C100.57 146.63 101.112 149.184 102.223 151.442L104.018 150.558ZM102.57 143.8C102.57 141.356 103.014 139.202 103.879 137.317L102.061 136.483C101.06 138.665 100.57 141.11 100.57 143.8H102.57ZM103.876 137.324C104.771 135.411 106.021 133.942 107.621 132.884L106.519 131.216C104.587 132.492 103.103 134.256 102.065 136.476L103.876 137.324ZM107.621 132.884C109.206 131.838 111.076 131.3 113.27 131.3V129.3C110.732 129.3 108.468 129.928 106.519 131.216L107.621 132.884ZM113.27 131.3C115.497 131.3 117.337 131.854 118.844 132.917L119.997 131.283C118.103 129.946 115.844 129.3 113.27 129.3V131.3ZM118.862 132.93C120.422 133.979 121.601 135.436 122.398 137.337L124.243 136.563C123.306 134.33 121.886 132.554 119.979 131.27L118.862 132.93ZM122.403 137.349C123.241 139.272 123.67 141.466 123.67 143.95H125.67C125.67 141.234 125.2 138.761 124.237 136.551L122.403 137.349ZM123.67 143.95V145.4H125.67V143.95H123.67ZM113.32 132.95C110.977 132.95 109.035 133.817 107.598 135.565L109.143 136.835C110.173 135.583 111.531 134.95 113.32 134.95V132.95ZM107.598 135.565C106.213 137.249 105.424 139.383 105.175 141.902L107.165 142.098C107.384 139.884 108.061 138.151 109.143 136.835L107.598 135.565ZM106.17 143H120.12V141H106.17V143ZM121.116 141.905C120.87 139.342 120.142 137.195 118.862 135.539L117.279 136.761C118.266 138.038 118.904 139.791 119.125 142.095L121.116 141.905ZM118.87 135.55C117.556 133.797 115.656 132.95 113.32 132.95V134.95C115.118 134.95 116.385 135.57 117.27 136.75L118.87 135.55ZM151.401 132.1L150.801 132.9L150.801 132.9L151.401 132.1ZM155.001 137L154.068 137.361L154.073 137.374L155.001 137ZM154.801 151L153.895 150.576L153.892 150.583L154.801 151ZM150.701 155.8L150.157 154.961L150.15 154.966L150.701 155.8ZM140.951 157.15L141.193 156.18L140.951 157.15ZM137.551 156L137.935 155.077L136.551 154.5V156H137.551ZM137.551 157V158H138.551V157H137.551ZM133.151 157H132.151V158H133.151V157ZM133.151 119.3V118.3H132.151V119.3H133.151ZM137.551 119.3H138.551V118.3H137.551V119.3ZM137.551 133.7H136.551V136.193L138.274 134.391L137.551 133.7ZM149.501 150.95L148.697 150.355L148.69 150.365L149.501 150.95ZM149.951 137.05L149.077 137.536L149.084 137.548L149.951 137.05ZM141.051 135.3L140.594 134.41L140.584 134.416L141.051 135.3ZM137.551 138.1L136.814 137.423L136.551 137.71V138.1H137.551ZM137.551 152.65H136.551V153.389L137.257 153.606L137.551 152.65ZM145.601 131.3C147.681 131.3 149.397 131.847 150.801 132.9L152.001 131.3C150.205 129.953 148.054 129.3 145.601 129.3V131.3ZM150.801 132.9C152.235 133.976 153.328 135.449 154.068 137.361L155.933 136.639C155.073 134.417 153.766 132.624 152.001 131.3L150.801 132.9ZM154.073 137.374C154.851 139.304 155.251 141.507 155.251 144H157.251C157.251 141.293 156.817 138.83 155.928 136.626L154.073 137.374ZM155.251 144C155.251 146.474 154.791 148.66 153.895 150.576L155.707 151.424C156.743 149.207 157.251 146.726 157.251 144H155.251ZM153.892 150.583C153.034 152.452 151.791 153.902 150.157 154.961L151.245 156.639C153.211 155.365 154.701 153.615 155.71 151.417L153.892 150.583ZM150.15 154.966C148.57 156.009 146.668 156.55 144.401 156.55V158.55C147 158.55 149.298 157.925 151.252 156.634L150.15 154.966ZM144.401 156.55C143.239 156.55 142.172 156.424 141.193 156.18L140.708 158.12C141.863 158.409 143.095 158.55 144.401 158.55V156.55ZM141.193 156.18C140.183 155.927 139.097 155.561 137.935 155.077L137.166 156.923C138.404 157.439 139.585 157.839 140.708 158.12L141.193 156.18ZM136.551 156V157H138.551V156H136.551ZM137.551 156H133.151V158H137.551V156ZM134.151 157V119.3H132.151V157H134.151ZM133.151 120.3H137.551V118.3H133.151V120.3ZM136.551 119.3V133.7H138.551V119.3H136.551ZM138.274 134.391C140.247 132.326 142.667 131.3 145.601 131.3V129.3C142.134 129.3 139.188 130.54 136.828 133.009L138.274 134.391ZM143.951 154.65C146.642 154.65 148.806 153.619 150.311 151.535L148.69 150.365C147.595 151.881 146.06 152.65 143.951 152.65V154.65ZM150.304 151.545C151.796 149.532 152.501 146.99 152.501 144H150.501C150.501 146.676 149.873 148.768 148.697 150.355L150.304 151.545ZM152.501 144C152.501 141.053 151.964 138.549 150.818 136.552L149.084 137.548C150.004 139.151 150.501 141.28 150.501 144H152.501ZM150.825 136.564C150.248 135.525 149.479 134.708 148.507 134.156C147.539 133.605 146.424 133.35 145.201 133.35V135.35C146.144 135.35 146.904 135.545 147.519 135.894C148.131 136.242 148.654 136.775 149.077 137.536L150.825 136.564ZM145.201 133.35C143.526 133.35 141.983 133.697 140.594 134.41L141.508 136.19C142.585 135.636 143.809 135.35 145.201 135.35V133.35ZM140.584 134.416C139.262 135.113 138.008 136.125 136.814 137.423L138.287 138.777C139.361 137.608 140.439 136.754 141.518 136.184L140.584 134.416ZM136.551 138.1V152.65H138.551V138.1H136.551ZM137.257 153.606C139.511 154.299 141.743 154.65 143.951 154.65V152.65C141.958 152.65 139.924 152.334 137.845 151.694L137.257 153.606ZM197.497 157L196.514 157.185L196.668 158H197.497V157ZM196.847 153.55L197.83 153.365L197.455 151.379L196.104 152.881L196.847 153.55ZM192.797 156.55L193.203 157.464L193.203 157.464L192.797 156.55ZM180.297 153.8L179.475 154.37L179.475 154.37L180.297 153.8ZM179.097 137.05L178.188 136.632L178.183 136.644L179.097 137.05ZM183.197 132.1L182.642 131.268L182.635 131.273L183.197 132.1ZM192.997 130.75L192.726 131.713L192.74 131.717L192.754 131.72L192.997 130.75ZM196.397 131.95L195.991 132.864L197.397 133.489V131.95H196.397ZM196.397 119.3V118.3H195.397V119.3H196.397ZM200.797 119.3H201.797V118.3H200.797V119.3ZM200.797 151.2H199.797V151.294L199.814 151.386L200.797 151.2ZM201.897 157V158H203.104L202.879 156.814L201.897 157ZM192.697 152.55L193.154 153.44L193.163 153.435L192.697 152.55ZM196.397 149.65L197.123 150.338L197.397 150.048V149.65H196.397ZM196.397 135.3H197.397V134.586L196.722 134.354L196.397 135.3ZM184.397 137L183.583 136.419L183.581 136.422L184.397 137ZM183.847 150.9L182.963 151.367L182.968 151.377L182.974 151.387L183.847 150.9ZM198.48 156.815L197.83 153.365L195.864 153.735L196.514 157.185L198.48 156.815ZM196.104 152.881C194.989 154.12 193.751 155.032 192.391 155.636L193.203 157.464C194.843 156.735 196.305 155.647 197.59 154.219L196.104 152.881ZM192.391 155.636C191.035 156.239 189.493 156.55 187.747 156.55V158.55C189.734 158.55 191.559 158.195 193.203 157.464L192.391 155.636ZM187.747 156.55C184.817 156.55 182.652 155.441 181.119 153.23L179.475 154.37C181.409 157.159 184.21 158.55 187.747 158.55V156.55ZM181.119 153.23C179.53 150.939 178.697 147.954 178.697 144.2H176.697C176.697 148.246 177.597 151.661 179.475 154.37L181.119 153.23ZM178.697 144.2C178.697 141.651 179.143 139.409 180.011 137.456L178.183 136.644C177.185 138.891 176.697 141.416 176.697 144.2H178.697ZM180.005 137.468C180.902 135.519 182.155 134.017 183.759 132.927L182.635 131.273C180.705 132.583 179.225 134.381 178.188 136.632L180.005 137.468ZM183.752 132.932C185.365 131.856 187.299 131.3 189.597 131.3V129.3C186.961 129.3 184.629 129.944 182.642 131.268L183.752 132.932ZM189.597 131.3C190.713 131.3 191.755 131.439 192.726 131.713L193.268 129.787C192.106 129.461 190.881 129.3 189.597 129.3V131.3ZM192.754 131.72C193.755 131.97 194.834 132.35 195.991 132.864L196.803 131.036C195.56 130.484 194.372 130.063 193.239 129.78L192.754 131.72ZM197.397 131.95V119.3H195.397V131.95H197.397ZM196.397 120.3H200.797V118.3H196.397V120.3ZM199.797 119.3V151.2H201.797V119.3H199.797ZM199.814 151.386L200.914 157.186L202.879 156.814L201.779 151.014L199.814 151.386ZM201.897 156H197.497V158H201.897V156ZM188.447 154.5C190.181 154.5 191.759 154.156 193.154 153.44L192.24 151.66C191.168 152.211 189.913 152.5 188.447 152.5V154.5ZM193.163 153.435C194.545 152.707 195.863 151.667 197.123 150.338L195.671 148.962C194.53 150.166 193.382 151.059 192.231 151.665L193.163 153.435ZM197.397 149.65V135.3H195.397V149.65H197.397ZM196.722 134.354C194.492 133.588 192.265 133.2 190.047 133.2V135.2C192.028 135.2 194.035 135.546 196.072 136.246L196.722 134.354ZM190.047 133.2C187.314 133.2 185.117 134.271 183.583 136.419L185.211 137.581C186.343 135.996 187.913 135.2 190.047 135.2V133.2ZM183.581 136.422C182.131 138.467 181.447 141.053 181.447 144.1H183.447C183.447 141.347 184.063 139.2 185.213 137.578L183.581 136.422ZM181.447 144.1C181.447 146.97 181.93 149.412 182.963 151.367L184.731 150.433C183.897 148.855 183.447 146.763 183.447 144.1H181.447ZM182.974 151.387C183.535 152.393 184.284 153.186 185.23 153.721C186.173 154.254 187.258 154.5 188.447 154.5V152.5C187.536 152.5 186.804 152.313 186.214 151.979C185.627 151.648 185.126 151.14 184.72 150.413L182.974 151.387ZM232.629 145.4V146.4H233.629V145.4H232.629ZM214.129 145.4V144.4H213.02L213.135 145.503L214.129 145.4ZM216.679 151.55L215.949 152.233L215.956 152.241L215.964 152.249L216.679 151.55ZM226.979 152.9L227.373 153.819L227.383 153.815L226.979 152.9ZM231.329 150.15V149.15H230.972L230.696 149.376L231.329 150.15ZM231.529 150.15H232.529V149.15H231.529V150.15ZM231.529 154.55L232.117 155.359L232.529 155.059V154.55H231.529ZM227.179 156.9L227.489 157.851L227.499 157.848L227.509 157.844L227.179 156.9ZM215.629 155.85L215.119 156.71L215.119 156.71L215.629 155.85ZM211.079 151L210.182 151.442L210.186 151.45L210.191 151.459L211.079 151ZM210.929 136.9L210.023 136.476L210.02 136.483L210.929 136.9ZM215.029 132.05L215.58 132.884L215.58 132.884L215.029 132.05ZM227.379 132.1L226.803 132.917L226.812 132.923L226.821 132.93L227.379 132.1ZM231.279 136.95L230.357 137.337L230.362 137.349L231.279 136.95ZM216.329 136.2L217.102 136.835L217.102 136.835L216.329 136.2ZM214.129 142L213.134 141.902L213.026 143H214.129V142ZM228.079 142V143H229.18L229.075 141.905L228.079 142ZM226.029 136.15L225.229 136.75L225.234 136.756L225.238 136.761L226.029 136.15ZM232.629 144.4H214.129V146.4H232.629V144.4ZM213.135 145.503C213.419 148.236 214.335 150.507 215.949 152.233L217.41 150.867C216.157 149.527 215.373 147.697 215.124 145.297L213.135 145.503ZM215.964 152.249C217.655 153.978 219.916 154.8 222.629 154.8V152.8C220.343 152.8 218.637 152.122 217.394 150.851L215.964 152.249ZM222.629 154.8C224.267 154.8 225.851 154.472 227.373 153.819L226.585 151.981C225.308 152.528 223.992 152.8 222.629 152.8V154.8ZM227.383 153.815C228.914 153.138 230.44 152.169 231.963 150.924L230.696 149.376C229.285 150.531 227.911 151.395 226.575 151.985L227.383 153.815ZM231.329 151.15H231.529V149.15H231.329V151.15ZM230.529 150.15V154.55H232.529V150.15H230.529ZM230.941 153.741C229.539 154.761 228.175 155.494 226.85 155.956L227.509 157.844C229.05 157.306 230.587 156.472 232.117 155.359L230.941 153.741ZM226.87 155.949C225.544 156.381 224.116 156.6 222.579 156.6V158.6C224.309 158.6 225.948 158.353 227.489 157.851L226.87 155.949ZM222.579 156.6C220.062 156.6 217.928 156.051 216.139 154.99L215.119 156.71C217.264 157.983 219.763 158.6 222.579 158.6V156.6ZM216.139 154.99C214.337 153.921 212.95 152.444 211.968 150.541L210.191 151.459C211.342 153.689 212.988 155.446 215.119 156.71L216.139 154.99ZM211.977 150.558C211.02 148.616 210.529 146.37 210.529 143.8H208.529C208.529 146.63 209.071 149.184 210.182 151.442L211.977 150.558ZM210.529 143.8C210.529 141.356 210.973 139.202 211.838 137.317L210.02 136.483C209.019 138.665 208.529 141.11 208.529 143.8H210.529ZM211.835 137.324C212.73 135.411 213.98 133.942 215.58 132.884L214.478 131.216C212.546 132.492 211.062 134.256 210.023 136.476L211.835 137.324ZM215.58 132.884C217.165 131.838 219.035 131.3 221.229 131.3V129.3C218.691 129.3 216.427 129.928 214.478 131.216L215.58 132.884ZM221.229 131.3C223.456 131.3 225.296 131.854 226.803 132.917L227.956 131.283C226.062 129.946 223.803 129.3 221.229 129.3V131.3ZM226.821 132.93C228.38 133.979 229.56 135.436 230.357 137.337L232.201 136.563C231.265 134.33 229.845 132.554 227.938 131.27L226.821 132.93ZM230.362 137.349C231.2 139.272 231.629 141.466 231.629 143.95H233.629C233.629 141.234 233.159 138.761 232.196 136.551L230.362 137.349ZM231.629 143.95V145.4H233.629V143.95H231.629ZM221.279 132.95C218.936 132.95 216.994 133.817 215.557 135.565L217.102 136.835C218.132 135.583 219.49 134.95 221.279 134.95V132.95ZM215.557 135.565C214.172 137.249 213.382 139.383 213.134 141.902L215.124 142.098C215.343 139.884 216.02 138.151 217.102 136.835L215.557 135.565ZM214.129 143H228.079V141H214.129V143ZM229.075 141.905C228.829 139.342 228.101 137.195 226.821 135.539L225.238 136.761C226.225 138.038 226.863 139.791 227.084 142.095L229.075 141.905ZM226.829 135.55C225.514 133.797 223.615 132.95 221.279 132.95V134.95C223.077 134.95 224.344 135.57 225.229 136.75L226.829 135.55ZM262.66 130.9L263.598 131.247L264.096 129.9H262.66V130.9ZM253.01 157V158H253.706L253.948 157.347L253.01 157ZM247.01 157L246.072 157.347L246.313 158H247.01V157ZM237.36 130.9V129.9H235.924L236.422 131.247L237.36 130.9ZM241.86 130.9L242.799 130.556L242.559 129.9H241.86V130.9ZM250.11 153.45L249.171 153.794L250.11 156.361L251.049 153.794L250.11 153.45ZM258.36 130.9V129.9H257.661L257.421 130.556L258.36 130.9ZM261.722 130.553L252.072 156.653L253.948 157.347L263.598 131.247L261.722 130.553ZM253.01 156H247.01V158H253.01V156ZM247.948 156.653L238.298 130.553L236.422 131.247L246.072 157.347L247.948 156.653ZM237.36 131.9H241.86V129.9H237.36V131.9ZM240.921 131.244L249.171 153.794L251.049 153.106L242.799 130.556L240.921 131.244ZM251.049 153.794L259.299 131.244L257.421 130.556L249.171 153.106L251.049 153.794ZM258.36 131.9H262.66V129.9H258.36V131.9ZM289.612 145.4V146.4H290.612V145.4H289.612ZM271.112 145.4V144.4H270.002L270.117 145.503L271.112 145.4ZM273.662 151.55L272.931 152.233L272.939 152.241L272.947 152.249L273.662 151.55ZM283.962 152.9L284.356 153.819L284.366 153.815L283.962 152.9ZM288.312 150.15V149.15H287.955L287.678 149.376L288.312 150.15ZM288.512 150.15H289.512V149.15H288.512V150.15ZM288.512 154.55L289.1 155.359L289.512 155.059V154.55H288.512ZM284.162 156.9L284.471 157.851L284.481 157.848L284.491 157.844L284.162 156.9ZM272.612 155.85L272.102 156.71L272.102 156.71L272.612 155.85ZM268.062 151L267.164 151.442L267.169 151.45L267.173 151.459L268.062 151ZM267.912 136.9L267.006 136.476L267.003 136.483L267.912 136.9ZM272.012 132.05L272.563 132.884L272.563 132.884L272.012 132.05ZM284.362 132.1L283.785 132.917L283.794 132.923L283.803 132.93L284.362 132.1ZM288.262 136.95L287.339 137.337L287.345 137.349L288.262 136.95ZM273.312 136.2L274.084 136.835L274.084 136.835L273.312 136.2ZM271.112 142L270.117 141.902L270.008 143H271.112V142ZM285.062 142V143H286.162L286.057 141.905L285.062 142ZM283.012 136.15L282.212 136.75L282.216 136.756L282.22 136.761L283.012 136.15ZM289.612 144.4H271.112V146.4H289.612V144.4ZM270.117 145.503C270.401 148.236 271.318 150.507 272.931 152.233L274.392 150.867C273.139 149.527 272.356 147.697 272.106 145.297L270.117 145.503ZM272.947 152.249C274.637 153.978 276.898 154.8 279.612 154.8V152.8C277.325 152.8 275.62 152.122 274.377 150.851L272.947 152.249ZM279.612 154.8C281.249 154.8 282.833 154.472 284.356 153.819L283.568 151.981C282.29 152.528 280.974 152.8 279.612 152.8V154.8ZM284.366 153.815C285.897 153.138 287.423 152.169 288.945 150.924L287.678 149.376C286.267 150.531 284.893 151.395 283.558 151.985L284.366 153.815ZM288.312 151.15H288.512V149.15H288.312V151.15ZM287.512 150.15V154.55H289.512V150.15H287.512ZM287.924 153.741C286.521 154.761 285.157 155.494 283.832 155.956L284.491 157.844C286.033 157.306 287.569 156.472 289.1 155.359L287.924 153.741ZM283.852 155.949C282.527 156.381 281.099 156.6 279.562 156.6V158.6C281.291 158.6 282.93 158.353 284.471 157.851L283.852 155.949ZM279.562 156.6C277.044 156.6 274.91 156.051 273.122 154.99L272.102 156.71C274.247 157.983 276.746 158.6 279.562 158.6V156.6ZM273.122 154.99C271.319 153.921 269.933 152.444 268.95 150.541L267.173 151.459C268.324 153.689 269.971 155.446 272.102 156.71L273.122 154.99ZM268.959 150.558C268.003 148.616 267.512 146.37 267.512 143.8H265.512C265.512 146.63 266.054 149.184 267.164 151.442L268.959 150.558ZM267.512 143.8C267.512 141.356 267.956 139.202 268.821 137.317L267.003 136.483C266.001 138.665 265.512 141.11 265.512 143.8H267.512ZM268.818 137.324C269.712 135.411 270.962 133.942 272.563 132.884L271.461 131.216C269.528 132.492 268.044 134.256 267.006 136.476L268.818 137.324ZM272.563 132.884C274.147 131.838 276.017 131.3 278.212 131.3V129.3C275.673 129.3 273.41 129.928 271.461 131.216L272.563 132.884ZM278.212 131.3C280.438 131.3 282.279 131.854 283.785 132.917L284.938 131.283C283.045 129.946 280.785 129.3 278.212 129.3V131.3ZM283.803 132.93C285.363 133.979 286.543 135.436 287.34 137.337L289.184 136.563C288.248 134.33 286.827 132.554 284.92 131.27L283.803 132.93ZM287.345 137.349C288.182 139.272 288.612 141.466 288.612 143.95H290.612C290.612 141.234 290.141 138.761 289.179 136.551L287.345 137.349ZM288.612 143.95V145.4H290.612V143.95H288.612ZM278.262 132.95C275.918 132.95 273.976 133.817 272.539 135.565L274.084 136.835C275.114 135.583 276.472 134.95 278.262 134.95V132.95ZM272.539 135.565C271.154 137.249 270.365 139.383 270.117 141.902L272.107 142.098C272.325 139.884 273.002 138.151 274.084 136.835L272.539 135.565ZM271.112 143H285.062V141H271.112V143ZM286.057 141.905C285.811 139.342 285.083 137.195 283.803 135.539L282.22 136.761C283.207 138.038 283.845 139.791 284.066 142.095L286.057 141.905ZM283.812 135.55C282.497 133.797 280.597 132.95 278.262 132.95V134.95C280.06 134.95 281.327 135.57 282.212 136.75L283.812 135.55ZM297.792 119.3V118.3H296.792V119.3H297.792ZM302.192 119.3H303.192V118.3H302.192V119.3ZM302.192 157V158H303.192V157H302.192ZM297.792 157H296.792V158H297.792V157ZM297.792 120.3H302.192V118.3H297.792V120.3ZM301.192 119.3V157H303.192V119.3H301.192ZM302.192 156H297.792V158H302.192V156ZM298.792 157V119.3H296.792V157H298.792ZM314.106 153.9L313.345 154.549L313.349 154.554L314.106 153.9ZM314.106 134.05L314.862 134.704L314.867 134.699L314.106 134.05ZM331.906 134.05L331.145 134.699L331.149 134.704L331.906 134.05ZM331.906 153.9L332.662 154.554L332.667 154.549L331.906 153.9ZM328.506 151.1L327.681 150.535L327.681 150.535L328.506 151.1ZM328.506 136.8L327.681 137.365L327.681 137.365L328.506 136.8ZM317.506 136.8L316.681 136.235L316.674 136.245L317.506 136.8ZM317.506 151.1L316.674 151.655L316.681 151.665L317.506 151.1ZM323.006 156.6C319.443 156.6 316.773 155.456 314.862 153.246L313.349 154.554C315.705 157.278 318.969 158.6 323.006 158.6V156.6ZM314.867 153.251C312.924 150.975 311.906 147.909 311.906 143.95H309.906C309.906 148.258 311.021 151.825 313.345 154.549L314.867 153.251ZM311.906 143.95C311.906 139.991 312.924 136.945 314.862 134.704L313.349 133.396C311.021 136.089 309.906 139.643 309.906 143.95H311.906ZM314.867 134.699C316.779 132.458 319.448 131.3 323.006 131.3V129.3C318.964 129.3 315.699 130.642 313.345 133.401L314.867 134.699ZM323.006 131.3C326.564 131.3 329.233 132.458 331.145 134.699L332.667 133.401C330.313 130.642 327.048 129.3 323.006 129.3V131.3ZM331.149 134.704C333.087 136.945 334.106 139.991 334.106 143.95H336.106C336.106 139.643 334.991 136.089 332.662 133.396L331.149 134.704ZM334.106 143.95C334.106 147.909 333.087 150.975 331.145 153.251L332.667 154.549C334.991 151.825 336.106 148.258 336.106 143.95H334.106ZM331.149 153.246C329.238 155.456 326.569 156.6 323.006 156.6V158.6C327.043 158.6 330.307 157.278 332.662 154.554L331.149 153.246ZM323.006 154.8C325.725 154.8 327.887 153.772 329.331 151.665L327.681 150.535C326.658 152.028 325.154 152.8 323.006 152.8V154.8ZM329.331 151.665C330.713 149.649 331.356 147.048 331.356 143.95H329.356C329.356 146.786 328.766 148.951 327.681 150.535L329.331 151.665ZM331.356 143.95C331.356 140.852 330.713 138.251 329.331 136.235L327.681 137.365C328.766 138.949 329.356 141.114 329.356 143.95H331.356ZM329.331 136.235C327.887 134.128 325.725 133.1 323.006 133.1V135.1C325.154 135.1 326.658 135.872 327.681 137.365L329.331 136.235ZM323.006 133.1C320.287 133.1 318.124 134.128 316.681 136.235L318.331 137.365C319.354 135.872 320.858 135.1 323.006 135.1V133.1ZM316.674 136.245C315.331 138.26 314.706 140.857 314.706 143.95H316.706C316.706 141.11 317.281 138.94 318.338 137.355L316.674 136.245ZM314.706 143.95C314.706 147.043 315.331 149.64 316.674 151.655L318.338 150.545C317.281 148.96 316.706 146.79 316.706 143.95H314.706ZM316.681 151.665C318.124 153.772 320.287 154.8 323.006 154.8V152.8C320.858 152.8 319.354 152.028 318.331 150.535L316.681 151.665ZM362.288 132.1L362.888 131.3L362.888 131.3L362.288 132.1ZM365.888 137L364.956 137.361L364.961 137.374L365.888 137ZM365.688 151L364.782 150.576L364.779 150.583L365.688 151ZM361.588 155.8L361.044 154.961L361.037 154.966L361.588 155.8ZM351.838 157.15L351.596 158.12L351.596 158.12L351.838 157.15ZM348.438 156L348.823 155.077L347.438 154.5V156H348.438ZM348.438 168.6V169.6H349.438V168.6H348.438ZM344.038 168.6H343.038V169.6H344.038V168.6ZM344.038 136.7H345.038V136.606L345.021 136.514L344.038 136.7ZM342.938 130.9V129.9H341.731L341.956 131.086L342.938 130.9ZM347.338 130.9L348.32 130.71L348.163 129.9H347.338V130.9ZM347.988 134.25L347.007 134.44L347.4 136.467L348.746 134.902L347.988 134.25ZM360.388 150.95L359.585 150.355L359.578 150.365L360.388 150.95ZM360.838 137.05L359.964 137.536L359.971 137.548L360.838 137.05ZM351.938 135.3L351.481 134.41L351.472 134.416L351.938 135.3ZM348.438 138.1L347.702 137.423L347.438 137.71V138.1H348.438ZM348.438 152.65H347.438V153.389L348.144 153.606L348.438 152.65ZM356.488 131.3C358.569 131.3 360.284 131.847 361.688 132.9L362.888 131.3C361.092 129.953 358.941 129.3 356.488 129.3V131.3ZM361.688 132.9C363.123 133.976 364.216 135.449 364.956 137.361L366.821 136.639C365.961 134.417 364.654 132.624 362.888 131.3L361.688 132.9ZM364.961 137.374C365.739 139.304 366.138 141.507 366.138 144H368.138C368.138 141.293 367.704 138.83 366.816 136.626L364.961 137.374ZM366.138 144C366.138 146.474 365.679 148.66 364.782 150.576L366.594 151.424C367.631 149.207 368.138 146.726 368.138 144H366.138ZM364.779 150.583C363.922 152.452 362.678 153.902 361.044 154.961L362.132 156.639C364.098 155.365 365.588 153.615 366.597 151.417L364.779 150.583ZM361.037 154.966C359.457 156.009 357.556 156.55 355.288 156.55V158.55C357.887 158.55 360.186 157.925 362.139 156.634L361.037 154.966ZM355.288 156.55C354.127 156.55 353.059 156.424 352.081 156.18L351.596 158.12C352.751 158.409 353.983 158.55 355.288 158.55V156.55ZM352.081 156.18C351.07 155.927 349.985 155.561 348.823 155.077L348.054 156.923C349.292 157.439 350.473 157.839 351.596 158.12L352.081 156.18ZM347.438 156V168.6H349.438V156H347.438ZM348.438 167.6H344.038V169.6H348.438V167.6ZM345.038 168.6V136.7H343.038V168.6H345.038ZM345.021 136.514L343.921 130.714L341.956 131.086L343.056 136.886L345.021 136.514ZM342.938 131.9H347.338V129.9H342.938V131.9ZM346.357 131.09L347.007 134.44L348.97 134.06L348.32 130.71L346.357 131.09ZM348.746 134.902C350.828 132.484 353.387 131.3 356.488 131.3V129.3C352.79 129.3 349.682 130.749 347.23 133.598L348.746 134.902ZM354.838 154.65C357.529 154.65 359.694 153.619 361.199 151.535L359.578 150.365C358.483 151.881 356.948 152.65 354.838 152.65V154.65ZM361.192 151.545C362.683 149.532 363.388 146.99 363.388 144H361.388C361.388 146.676 360.76 148.768 359.585 150.355L361.192 151.545ZM363.388 144C363.388 141.053 362.852 138.549 361.706 136.552L359.971 137.548C360.891 139.151 361.388 141.28 361.388 144H363.388ZM361.712 136.564C361.135 135.525 360.366 134.708 359.395 134.156C358.426 133.605 357.312 133.35 356.088 133.35V135.35C357.031 135.35 357.792 135.545 358.407 135.894C359.019 136.242 359.541 136.775 359.964 137.536L361.712 136.564ZM356.088 133.35C354.413 133.35 352.871 133.697 351.481 134.41L352.395 136.19C353.473 135.636 354.697 135.35 356.088 135.35V133.35ZM351.472 134.416C350.15 135.113 348.895 136.125 347.702 137.423L349.175 138.777C350.248 137.608 351.327 136.754 352.405 136.184L351.472 134.416ZM347.438 138.1V152.65H349.438V138.1H347.438ZM348.144 153.606C350.399 154.299 352.631 154.65 354.838 154.65V152.65C352.846 152.65 350.811 152.334 348.732 151.694L348.144 153.606ZM397.571 145.4V146.4H398.571V145.4H397.571ZM379.071 145.4V144.4H377.961L378.076 145.503L379.071 145.4ZM381.621 151.55L380.89 152.233L380.898 152.241L380.906 152.249L381.621 151.55ZM391.921 152.9L392.315 153.819L392.325 153.815L391.921 152.9ZM396.271 150.15V149.15H395.914L395.637 149.376L396.271 150.15ZM396.471 150.15H397.471V149.15H396.471V150.15ZM396.471 154.55L397.059 155.359L397.471 155.059V154.55H396.471ZM392.121 156.9L392.43 157.851L392.44 157.848L392.45 157.844L392.121 156.9ZM380.571 155.85L380.061 156.71L380.061 156.71L380.571 155.85ZM376.021 151L375.123 151.442L375.128 151.45L375.132 151.459L376.021 151ZM375.871 136.9L374.965 136.476L374.962 136.483L375.871 136.9ZM379.971 132.05L380.522 132.884L380.522 132.884L379.971 132.05ZM392.321 132.1L391.744 132.917L391.753 132.923L391.762 132.93L392.321 132.1ZM396.221 136.95L395.298 137.337L395.304 137.349L396.221 136.95ZM381.271 136.2L382.043 136.835L382.043 136.835L381.271 136.2ZM379.071 142L378.076 141.902L377.967 143H379.071V142ZM393.021 142V143H394.121L394.016 141.905L393.021 142ZM390.971 136.15L390.171 136.75L390.175 136.756L390.179 136.761L390.971 136.15ZM397.571 144.4H379.071V146.4H397.571V144.4ZM378.076 145.503C378.36 148.236 379.277 150.507 380.89 152.233L382.351 150.867C381.098 149.527 380.315 147.697 380.065 145.297L378.076 145.503ZM380.906 152.249C382.596 153.978 384.857 154.8 387.571 154.8V152.8C385.284 152.8 383.579 152.122 382.336 150.851L380.906 152.249ZM387.571 154.8C389.208 154.8 390.792 154.472 392.315 153.819L391.527 151.981C390.249 152.528 388.933 152.8 387.571 152.8V154.8ZM392.325 153.815C393.856 153.138 395.382 152.169 396.904 150.924L395.637 149.376C394.226 150.531 392.852 151.395 391.517 151.985L392.325 153.815ZM396.271 151.15H396.471V149.15H396.271V151.15ZM395.471 150.15V154.55H397.471V150.15H395.471ZM395.883 153.741C394.48 154.761 393.116 155.494 391.791 155.956L392.45 157.844C393.992 157.306 395.528 156.472 397.059 155.359L395.883 153.741ZM391.811 155.949C390.486 156.381 389.058 156.6 387.521 156.6V158.6C389.25 158.6 390.889 158.353 392.43 157.851L391.811 155.949ZM387.521 156.6C385.003 156.6 382.869 156.051 381.081 154.99L380.061 156.71C382.206 157.983 384.705 158.6 387.521 158.6V156.6ZM381.081 154.99C379.278 153.921 377.892 152.444 376.909 150.541L375.132 151.459C376.283 153.689 377.93 155.446 380.061 156.71L381.081 154.99ZM376.918 150.558C375.962 148.616 375.471 146.37 375.471 143.8H373.471C373.471 146.63 374.013 149.184 375.123 151.442L376.918 150.558ZM375.471 143.8C375.471 141.356 375.915 139.202 376.78 137.317L374.962 136.483C373.96 138.665 373.471 141.11 373.471 143.8H375.471ZM376.777 137.324C377.671 135.411 378.921 133.942 380.522 132.884L379.42 131.216C377.487 132.492 376.003 134.256 374.965 136.476L376.777 137.324ZM380.522 132.884C382.106 131.838 383.976 131.3 386.171 131.3V129.3C383.632 129.3 381.369 129.928 379.42 131.216L380.522 132.884ZM386.171 131.3C388.397 131.3 390.238 131.854 391.744 132.917L392.897 131.283C391.004 129.946 388.744 129.3 386.171 129.3V131.3ZM391.762 132.93C393.322 133.979 394.502 135.436 395.299 137.337L397.143 136.563C396.207 134.33 394.786 132.554 392.879 131.27L391.762 132.93ZM395.304 137.349C396.141 139.272 396.571 141.466 396.571 143.95H398.571C398.571 141.234 398.1 138.761 397.138 136.551L395.304 137.349ZM396.571 143.95V145.4H398.571V143.95H396.571ZM386.221 132.95C383.877 132.95 381.935 133.817 380.498 135.565L382.043 136.835C383.073 135.583 384.431 134.95 386.221 134.95V132.95ZM380.498 135.565C379.113 137.249 378.324 139.383 378.076 141.902L380.066 142.098C380.284 139.884 380.961 138.151 382.043 136.835L380.498 135.565ZM379.071 143H393.021V141H379.071V143ZM394.016 141.905C393.77 139.342 393.042 137.195 391.762 135.539L390.179 136.761C391.166 138.038 391.804 139.791 392.025 142.095L394.016 141.905ZM391.771 135.55C390.456 133.797 388.556 132.95 386.221 132.95V134.95C388.019 134.95 389.286 135.57 390.171 136.75L391.771 135.55ZM419.051 130.3H420.051V129.3H419.051V130.3ZM419.051 135.15V136.15H420.051V135.15H419.051ZM414.051 136L413.643 135.087L413.634 135.091L414.051 136ZM410.951 138.45L410.163 137.834L409.951 138.106V138.45H410.951ZM410.951 157V158H411.951V157H410.951ZM406.551 157H405.551V158H406.551V157ZM406.551 136.7H407.551V136.606L407.534 136.514L406.551 136.7ZM405.451 130.9V129.9H404.244L404.469 131.086L405.451 130.9ZM409.851 130.9L410.833 130.71L410.676 129.9H409.851V130.9ZM410.751 135.55L409.769 135.74L410.225 138.093L411.577 136.114L410.751 135.55ZM414.201 131.45L414.819 132.236L414.823 132.233L414.201 131.45ZM418.051 130.3V135.15H420.051V130.3H418.051ZM419.051 134.15H418.301V136.15H419.051V134.15ZM418.301 134.15C416.612 134.15 415.054 134.456 413.643 135.087L414.46 136.913C415.582 136.411 416.857 136.15 418.301 136.15V134.15ZM413.634 135.091C412.256 135.724 411.095 136.641 410.163 137.834L411.739 139.066C412.474 138.125 413.38 137.409 414.469 136.909L413.634 135.091ZM409.951 138.45V157H411.951V138.45H409.951ZM410.951 156H406.551V158H410.951V156ZM407.551 157V136.7H405.551V157H407.551ZM407.534 136.514L406.434 130.714L404.469 131.086L405.569 136.886L407.534 136.514ZM405.451 131.9H409.851V129.9H405.451V131.9ZM408.869 131.09L409.769 135.74L411.733 135.36L410.833 130.71L408.869 131.09ZM411.577 136.114C412.933 134.13 414.012 132.87 414.819 132.236L413.583 130.664C412.524 131.496 411.303 132.97 409.926 134.986L411.577 136.114ZM414.823 132.233C415.613 131.607 416.494 131.3 417.501 131.3V129.3C416.042 129.3 414.723 129.76 413.58 130.667L414.823 132.233ZM417.501 131.3H419.051V129.3H417.501V131.3Z" fill="white"/>
        <line x1="57" y1="101" x2="420" y2="101" stroke="white" stroke-width="8"/>
    </g>
</svg>
